<?xml version="1.0" standalone="no"?>
<!DOCTYPE svg PUBLIC "-//W3C//DTD SVG 20010904//EN"
 "http://www.w3.org/TR/2001/REC-SVG-20010904/DTD/svg10.dtd">
<svg version="1.0" xmlns="http://www.w3.org/2000/svg"
 width="300.000000pt" height="300.000000pt" viewBox="0 0 300.000000 300.000000"
 preserveAspectRatio="xMidYMid meet">
<metadata>
Created by potrace 1.10, written by Peter Selinger 2001-2011
</metadata>
<g transform="translate(0.000000,300.000000) scale(0.100000,-0.100000)"
fill="#000000" stroke="none">
<path d="M1365 2509 c-16 -5 -45 -11 -65 -15 -19 -3 -39 -7 -45 -8 -5 -2 -23
-6 -40 -11 -16 -4 -34 -10 -40 -14 -5 -3 -15 -6 -22 -7 -25 -4 -161 -78 -220
-120 -65 -47 -183 -161 -183 -177 0 -6 8 -4 18 4 95 80 148 125 152 129 33 37
213 129 310 159 101 31 117 33 251 36 171 3 186 0 449 -80 l45 -14 -98 0
c-261 -2 -489 -47 -902 -176 -116 -37 -218 -66 -229 -66 -10 0 -16 -3 -12 -6
3 -3 -21 -26 -54 -49 -32 -24 -69 -57 -81 -74 -21 -27 -28 -30 -83 -31 -47 0
-56 -2 -38 -9 20 -8 22 -16 22 -79 0 -59 -3 -73 -22 -91 -12 -11 -17 -20 -11
-20 7 0 4 -24 -7 -69 -64 -242 -44 -466 56 -640 43 -74 189 -212 279 -265 44
-26 87 -51 95 -56 27 -15 203 -68 290 -86 65 -14 134 -18 295 -18 240 -1 277
6 432 79 162 76 325 219 433 380 58 87 143 253 164 321 20 64 46 238 46 303
l0 48 42 6 c46 6 81 37 71 63 -8 21 -56 44 -93 44 -28 0 -30 2 -30 40 0 31 4
40 18 40 55 -1 80 -25 62 -61 -12 -21 -1 -26 18 -7 18 18 14 56 -7 68 -11 5
-40 10 -65 10 -35 0 -46 4 -46 16 0 8 -14 49 -31 91 -73 175 -241 283 -439
283 -32 0 -56 7 -82 25 -20 14 -42 25 -48 25 -6 0 -22 7 -35 16 -14 9 -25 13
-25 9 0 -4 -7 -2 -15 5 -8 7 -15 9 -15 6 0 -4 -9 -2 -21 4 -21 12 -37 16 -99
26 -19 3 -39 9 -45 12 -15 9 -266 10 -300 1z m783 -155 c102 -21 167 -53 226
-111 57 -57 89 -109 116 -188 24 -70 24 -65 3 -65 -15 0 -15 -2 2 -14 29 -21
31 -140 2 -167 l-21 -19 32 0 31 0 -5 -62 c-8 -109 -25 -241 -32 -252 -3 -6
-16 -39 -28 -73 -54 -155 -180 -349 -304 -467 -128 -122 -249 -194 -407 -243
-82 -25 -99 -27 -268 -26 -288 2 -462 41 -658 146 -197 105 -309 234 -370 422
-19 61 -22 91 -21 230 0 116 5 175 16 215 9 30 19 67 22 81 5 25 10 27 72 31
60 4 70 7 95 36 20 22 29 43 29 66 0 39 -33 86 -61 86 -29 0 -23 22 18 61 85
79 150 106 523 214 329 95 442 113 713 114 145 1 218 -3 275 -15z m-1531 -396
c21 -17 34 -73 24 -101 -11 -30 -33 -43 -76 -48 -29 -4 -30 -3 -33 44 -2 36 2
55 19 78 11 16 19 33 16 35 -3 3 -12 -7 -21 -23 l-15 -28 -1 34 c0 33 0 33 38
26 20 -4 42 -11 49 -17z m1980 -74 c52 -14 34 -77 -21 -72 -28 3 -31 7 -34 41
-3 39 5 44 55 31z"/>
<path d="M2030 2351 c0 -4 26 -28 58 -53 75 -60 160 -148 216 -225 25 -35 50
-63 55 -63 13 0 2 37 -15 51 -8 6 -14 15 -14 20 0 13 -28 45 -120 140 -100
102 -180 160 -180 130z"/>
<path d="M660 2031 c-12 -25 -15 -39 -8 -36 18 7 49 64 38 70 -5 3 -18 -12
-30 -34z"/>
<path d="M1560 1989 c-39 -16 -59 -39 -66 -76 -13 -68 35 -123 107 -123 40 0
99 56 99 94 0 42 -28 86 -65 102 -39 16 -41 16 -75 3z m80 -36 c49 -62 3 -169
-62 -144 -34 13 -51 44 -51 93 0 74 70 106 113 51z"/>
<path d="M2300 1990 c-47 -3 -67 -7 -52 -12 20 -6 22 -12 22 -87 0 -64 -3 -81
-14 -81 -8 0 -18 -4 -21 -10 -4 -6 28 -10 89 -10 88 0 96 2 96 19 0 28 20 37
21 9 0 -13 3 -32 5 -43 5 -22 6 -28 25 -183 9 -76 15 -98 21 -82 11 30 -2 226
-17 250 -3 6 -8 19 -11 30 -2 11 -6 29 -8 39 -8 35 -45 107 -45 86 0 -11 4
-29 8 -40 13 -33 -27 -67 -75 -63 -37 3 -39 5 -42 41 -3 36 -2 37 29 37 19 0
37 -7 45 -17 12 -16 13 -14 14 21 0 37 -1 38 -18 23 -10 -10 -31 -17 -45 -17
-25 0 -27 3 -27 40 0 40 0 40 39 40 29 0 43 -6 54 -22 l16 -23 0 26 c1 33 -10
36 -109 29z"/>
<path d="M811 1968 c-41 -107 -64 -158 -72 -158 -5 0 -9 -4 -9 -10 0 -5 16
-10 35 -10 19 0 35 5 35 10 0 6 -7 10 -15 10 -18 0 -18 1 -5 34 8 21 16 26 45
26 28 0 38 -5 44 -22 7 -16 5 -26 -5 -34 -23 -19 -16 -24 31 -24 47 0 54 6 30
24 -8 6 -29 47 -48 90 -36 86 -52 101 -66 64z m39 -70 c0 -5 -11 -8 -25 -8
-29 0 -29 -1 -14 37 l11 28 13 -25 c8 -14 14 -28 15 -32z"/>
<path d="M987 1968 c11 -13 35 -58 53 -100 19 -43 36 -78 40 -78 3 0 21 37 40
83 18 45 43 90 54 99 20 17 20 18 -29 17 -40 0 -45 -2 -27 -9 26 -11 26 -8 6
-56 -9 -22 -21 -50 -26 -64 -9 -24 -11 -22 -39 40 -28 60 -29 65 -13 77 15 11
11 13 -31 13 l-48 0 20 -22z"/>
<path d="M1243 1983 c14 -4 17 -17 17 -88 0 -69 -3 -86 -17 -94 -14 -8 -5 -10
37 -10 43 0 50 2 33 9 -19 8 -23 17 -23 50 0 52 18 52 49 -1 19 -34 20 -43 10
-50 -9 -5 7 -9 41 -9 l55 1 -26 19 c-14 11 -39 38 -54 60 l-28 41 33 34 c18
19 42 36 54 38 12 2 -1 5 -29 5 -35 1 -45 -1 -35 -8 12 -8 9 -15 -20 -45 -18
-19 -38 -35 -42 -35 -4 0 -8 16 -8 35 0 28 5 38 23 45 17 7 9 9 -33 8 -30 0
-47 -2 -37 -5z"/>
<path d="M1895 1981 c13 -6 31 -38 54 -100 30 -81 51 -113 51 -78 0 6 11 41
24 76 l23 64 23 -69 c12 -38 26 -73 30 -78 5 -4 22 34 38 85 20 63 36 95 49
100 11 5 2 7 -27 7 -25 0 -37 -2 -27 -5 21 -5 21 -4 -1 -78 l-19 -60 -16 57
c-20 67 -21 75 -4 81 6 3 -10 6 -37 6 -44 1 -48 -1 -32 -12 17 -13 17 -15 0
-65 -10 -29 -22 -52 -25 -52 -4 0 -15 25 -25 56 -15 48 -15 57 -3 65 9 6 -5 9
-41 8 -38 0 -49 -3 -35 -8z"/>
<path d="M1760 1864 c0 -12 11 -14 48 -12 61 4 60 22 -1 25 -36 2 -47 -1 -47
-13z"/>
<path d="M544 1748 c-4 -13 -8 -32 -10 -43 -1 -11 -8 -55 -15 -99 -9 -61 -9
-96 0 -160 23 -155 28 -180 46 -222 8 -19 12 -34 9 -34 -3 0 1 -12 9 -27 8
-16 24 -48 36 -73 12 -25 30 -58 41 -75 11 -16 25 -40 31 -52 7 -13 16 -23 21
-23 4 0 8 -4 8 -10 0 -14 80 -93 88 -86 3 3 -4 16 -15 29 -35 38 -113 156
-143 215 -46 91 -87 229 -100 337 -12 96 -8 169 16 308 7 41 -10 53 -22 15z"/>
<path d="M1019 1654 c-11 -14 -10 -18 6 -30 10 -8 22 -14 27 -14 4 0 8 -5 8
-11 0 -7 -10 -9 -25 -7 -29 6 -34 -7 -6 -15 20 -5 51 9 51 24 0 5 -11 15 -25
21 -30 14 -33 28 -4 28 11 0 17 5 14 10 -9 15 -31 12 -46 -6z"/>
<path d="M1117 1652 c-23 -25 -21 -48 5 -66 41 -29 81 17 53 60 -19 29 -36 30
-58 6z m51 -30 c4 -28 -24 -41 -44 -20 -20 20 -7 50 20 46 13 -2 22 -12 24
-26z"/>
<path d="M1218 1664 c-5 -4 -8 -24 -8 -45 0 -33 3 -37 30 -41 17 -3 33 -1 36
4 3 4 -6 8 -20 8 -22 0 -25 5 -28 41 -2 22 -6 37 -10 33z"/>
<path d="M1300 1641 c0 -46 10 -61 40 -61 31 0 40 15 40 62 0 31 -14 31 -16 0
-3 -47 -5 -52 -24 -52 -16 0 -20 7 -20 34 0 19 -4 38 -10 41 -6 4 -10 -6 -10
-24z"/>
<path d="M1400 1660 c0 -5 7 -10 15 -10 10 0 15 -11 15 -35 0 -19 5 -35 10
-35 6 0 10 16 10 35 0 19 5 35 10 35 6 0 10 5 10 10 0 6 -16 10 -35 10 -19 0
-35 -4 -35 -10z"/>
<path d="M1500 1626 c0 -25 5 -46 10 -46 6 0 10 18 10 39 0 22 -4 43 -10 46
-6 4 -10 -12 -10 -39z"/>
<path d="M1561 1656 c-20 -24 -10 -70 17 -74 46 -7 69 40 36 72 -19 20 -38 20
-53 2z m53 -21 c8 -23 -4 -45 -25 -45 -11 0 -22 7 -25 15 -9 23 3 45 25 45 10
0 21 -7 25 -15z"/>
<path d="M1661 1625 l1 -50 8 40 c5 22 4 44 -1 50 -5 5 -9 -11 -8 -40z"/>
<path d="M1720 1639 c0 -31 0 -32 -20 -14 -32 29 -23 2 10 -30 l30 -29 0 47
c0 25 -4 49 -10 52 -6 4 -10 -7 -10 -26z"/>
<path d="M1810 1661 c0 -16 33 -81 41 -81 4 0 10 7 13 17 6 14 8 14 21 -3 13
-18 15 -17 30 19 9 22 14 44 12 50 -2 7 -9 -5 -16 -26 -15 -44 -35 -39 -27 6
3 18 3 26 0 19 -4 -10 -9 -10 -19 -2 -12 10 -13 5 -9 -27 5 -36 4 -37 -10 -19
-9 11 -16 25 -16 32 0 7 -4 16 -10 19 -5 3 -10 2 -10 -4z"/>
<path d="M1960 1626 c0 -41 2 -44 30 -48 17 -3 30 -1 30 4 0 4 -12 8 -26 8
-32 0 -27 22 7 31 24 7 24 7 -3 8 -35 1 -37 21 -3 21 14 0 25 5 25 10 0 6 -13
10 -30 10 -29 0 -30 -2 -30 -44z"/>
<path d="M2050 1624 c0 -45 0 -45 33 -42 28 3 32 7 33 33 2 38 -12 55 -42 55
-22 0 -24 -4 -24 -46z m58 -21 c2 -8 -6 -13 -22 -13 -25 0 -33 10 -19 24 10
10 36 3 41 -11z"/>
<path d="M1359 1473 c0 -5 -2 -18 -5 -30 -2 -13 1 -23 6 -23 6 0 10 -5 10 -11
0 -6 -7 -8 -16 -5 -15 6 -15 4 -3 -11 13 -15 12 -16 -8 -11 -18 5 -22 2 -20
-12 2 -9 11 -25 20 -34 9 -10 17 -21 17 -26 0 -17 32 -19 57 -3 14 10 33 18
42 18 41 3 48 6 48 20 0 8 -4 15 -9 15 -4 0 -8 4 -8 10 0 16 29 -1 35 -21 4
-11 11 -17 16 -13 6 3 16 0 24 -6 12 -10 18 -10 30 0 9 7 18 10 22 6 3 -3 1
-6 -6 -6 -7 0 -9 -5 -6 -10 4 -6 11 -8 16 -5 5 4 9 2 9 -3 0 -6 6 -12 14 -15
10 -4 14 0 13 14 -1 10 -7 19 -14 19 -7 0 -13 4 -13 9 0 5 -7 11 -15 13 -11 2
-12 7 -4 18 8 12 12 12 16 2 5 -12 41 -32 71 -38 10 -2 10 1 1 12 -6 7 -15 11
-20 8 -5 -3 -6 1 -3 9 3 8 -2 17 -10 20 -11 4 -16 1 -17 -11 0 -13 -3 -11 -9
6 -5 12 -7 28 -4 35 2 7 -2 21 -11 32 -14 19 -15 19 -8 1 4 -13 3 -17 -5 -12
-17 10 -54 -3 -46 -16 5 -7 0 -9 -13 -6 -12 3 -20 0 -20 -7 0 -7 6 -11 14 -8
18 7 16 -9 -3 -33 -13 -16 -15 -16 -10 -1 4 12 0 17 -15 17 -11 0 -17 5 -14
10 4 6 3 10 -2 9 -22 -4 -44 2 -38 10 3 5 1 12 -4 16 -6 3 -8 12 -5 19 3 8 0
17 -7 22 -8 4 -10 3 -5 -4 5 -8 -1 -12 -16 -13 -17 -1 -18 -3 -5 -6 11 -3 17
-14 16 -31 0 -15 -3 -21 -6 -14 -6 16 -20 15 -20 -2 0 -8 8 -13 19 -11 10 2
22 -4 28 -16 14 -26 3 -43 -16 -25 -8 9 -21 13 -29 10 -9 -4 -15 0 -15 10 0 9
-7 16 -15 16 -8 0 -15 5 -15 11 0 6 7 9 15 5 8 -3 15 -1 15 4 0 6 -5 10 -11
10 -6 0 -9 7 -5 15 3 8 1 15 -5 15 -6 0 -8 9 -4 20 4 11 2 20 -4 20 -6 0 -11
-3 -12 -7z m264 -60 c-3 -7 -9 -10 -15 -7 -5 3 -8 -2 -6 -12 2 -14 -2 -18 -17
-17 -11 1 -14 0 -7 -3 17 -8 15 -24 -4 -24 -13 0 -15 6 -9 28 3 15 11 29 16
30 5 2 7 8 4 13 -4 5 5 8 18 7 16 -1 23 -7 20 -15z m-224 -66 c13 -21 13 -21
-4 -7 -17 14 -18 13 -12 -2 4 -12 1 -18 -9 -18 -8 0 -13 4 -9 9 3 5 -4 13 -16
16 -19 6 -19 8 -3 20 22 16 35 11 53 -18z"/>
<path d="M1213 1443 c4 -3 2 -12 -3 -18 -7 -8 -7 -20 0 -36 l11 -24 -5 23 c-3
15 3 31 15 43 19 19 19 19 -3 19 -12 0 -18 -3 -15 -7z"/>
<path d="M1245 1390 c-3 -5 -1 -10 5 -10 6 0 8 -4 5 -10 -3 -5 1 -10 9 -10 8
0 18 -5 22 -12 5 -7 2 -9 -7 -6 -10 4 -15 -1 -16 -15 -1 -11 -7 -23 -13 -27
-7 -4 -11 -10 -11 -14 3 -18 0 -20 -10 -6 -9 13 -10 12 -5 -2 3 -10 1 -18 -4
-18 -6 0 -10 -5 -10 -12 0 -7 6 -6 18 4 9 9 23 13 30 11 8 -3 10 1 6 11 -7 19
12 22 19 4 4 -10 8 -10 16 2 12 17 4 33 -12 23 -8 -5 -8 -2 0 9 7 8 10 18 6
21 -3 4 -1 7 5 7 7 0 12 5 12 12 0 6 -3 9 -6 5 -3 -3 -16 5 -29 19 -14 15 -26
21 -30 14z"/>
<path d="M1710 1305 c0 -12 -6 -16 -19 -12 -16 4 -18 0 -15 -22 7 -38 24 -51
24 -18 0 19 7 30 21 35 19 7 19 9 5 21 -14 11 -16 11 -16 -4z"/>
<path d="M1339 1288 c-1 -7 -1 -16 0 -20 0 -5 -8 -8 -19 -8 -14 0 -20 -6 -18
-17 3 -19 -22 -25 -35 -8 -5 6 -15 1 -27 -14 -11 -13 -22 -22 -23 -20 -2 2 -8
16 -15 32 -6 15 -17 27 -24 27 -10 0 -10 -2 1 -9 7 -5 14 -21 15 -37 6 -68 28
-106 42 -70 11 28 33 4 40 -42 3 -26 10 -54 15 -62 4 -9 2 -21 -7 -31 -13 -14
-12 -16 11 -15 14 1 25 5 24 9 -4 26 -13 47 -20 47 -5 0 -7 19 -4 43 5 47 -1
62 -30 70 -15 4 -14 5 7 6 20 1 32 9 43 31 9 17 13 30 10 30 -4 0 0 7 7 15 31
34 36 43 31 49 -10 10 -23 7 -24 -6z m-60 -78 c4 0 8 -7 8 -15 0 -8 -6 -15
-14 -15 -7 0 -22 -6 -33 -12 -17 -11 -22 -10 -30 2 -5 8 -7 17 -4 19 3 3 9 -1
14 -9 6 -8 10 -12 11 -7 1 4 3 12 4 17 1 6 3 15 4 21 0 6 8 8 17 5 9 -3 19 -6
23 -6z"/>
<path d="M1466 1274 c-9 -8 -25 -17 -36 -19 -29 -6 -36 -11 -59 -51 -20 -33
-20 -36 -4 -30 13 4 12 1 -5 -13 -12 -11 -18 -22 -13 -26 6 -3 7 -13 4 -22 -4
-11 -3 -14 5 -9 7 4 12 1 12 -8 0 -9 -5 -16 -11 -16 -15 0 -7 -35 9 -36 25 -3
27 -5 12 -14 -13 -8 -12 -10 3 -10 11 0 15 -4 11 -12 -4 -7 -3 -8 4 -4 7 4 12
1 12 -7 0 -19 50 -41 64 -27 7 7 5 10 -8 10 -12 0 -16 5 -12 15 3 10 -1 15
-13 15 -10 0 -30 15 -43 33 -19 25 -23 39 -17 65 4 18 2 32 -3 32 -5 0 -2 7 6
16 18 18 20 30 6 39 -11 7 -2 35 11 35 4 0 5 -7 2 -17 -4 -11 -3 -14 5 -9 7 4
12 14 12 21 0 9 6 12 16 8 10 -4 20 1 26 11 6 11 14 14 21 8 18 -13 42 -9 42
8 1 31 -34 39 -59 14z"/>
<path d="M1543 1250 c-1 -17 2 -30 7 -30 6 0 10 5 10 10 0 6 13 10 30 10 26 0
29 -3 25 -30 -2 -16 -6 -34 -10 -40 -4 -6 1 -7 11 -3 11 4 15 3 10 -5 -4 -7 1
-10 14 -9 24 2 26 15 5 23 -14 6 -14 8 1 18 15 11 14 15 -8 39 -14 15 -35 27
-47 27 -11 0 -21 5 -21 10 0 25 -25 7 -27 -20z"/>
<path d="M1736 1244 c-8 -7 -16 -10 -20 -7 -3 4 -6 1 -6 -5 0 -6 4 -13 8 -16
10 -6 0 -79 -16 -116 -16 -37 -59 -83 -71 -75 -6 3 -8 0 -5 -8 4 -11 -1 -13
-19 -10 -14 3 -28 0 -31 -6 -4 -7 1 -11 13 -11 12 0 21 -5 21 -10 0 -6 8 -5
20 2 11 7 20 18 20 24 0 6 6 17 14 23 11 9 15 8 20 -5 5 -13 10 -14 18 -6 6 6
18 8 27 5 13 -4 13 -3 2 5 -8 6 -20 8 -28 5 -7 -3 -13 0 -13 6 0 6 4 11 9 11
12 0 35 68 33 96 -1 12 5 28 13 34 14 11 14 15 0 30 -12 14 -13 19 -3 27 7 6
21 10 30 10 14 0 15 -3 7 -14 -9 -10 -7 -13 7 -13 16 0 17 -2 4 -10 -11 -7 -5
-9 22 -7 22 1 38 7 38 15 0 13 -26 17 -33 5 -2 -5 -2 -2 -1 5 2 6 -1 12 -7 12
-6 0 -8 3 -5 8 8 13 -54 10 -68 -4z"/>
<path d="M1490 1190 c0 -7 -7 -10 -16 -6 -10 4 -14 1 -11 -6 2 -7 12 -12 21
-12 9 1 16 -3 16 -8 0 -6 6 -8 14 -5 13 5 13 0 1 -41 -8 -25 -12 -48 -10 -50
5 -5 24 42 31 73 4 23 -5 59 -13 51 -4 -3 -12 -1 -20 5 -10 9 -13 8 -13 -1z"/>
<path d="M1452 1148 c-16 -16 -15 -29 2 -22 8 3 17 1 21 -5 9 -16 32 -13 32 4
0 9 -5 14 -11 12 -6 -2 -16 2 -21 10 -8 11 -13 11 -23 1z"/>
<path d="M1780 1149 c0 -5 4 -8 8 -5 5 3 7 -13 5 -35 -3 -38 12 -56 19 -21 6
31 -4 72 -18 72 -8 0 -14 -5 -14 -11z"/>
<path d="M1613 1122 c10 -10 17 -22 17 -27 0 -5 -6 -1 -13 9 -12 16 -15 17
-20 3 -10 -26 25 -31 44 -5 21 27 16 38 -18 38 -25 0 -25 -1 -10 -18z"/>
<path d="M1184 1108 c-4 -7 -3 -8 4 -4 8 5 12 -1 12 -17 0 -25 -25 -44 -35
-27 -4 6 1 10 9 10 9 0 16 5 16 10 0 7 -7 7 -20 0 -15 -8 -19 -17 -15 -31 6
-18 -9 -28 -18 -11 -2 4 -2 1 -1 -5 2 -7 -2 -13 -8 -13 -6 0 -9 -3 -6 -6 3 -3
25 4 49 15 24 11 54 22 66 24 32 5 36 12 16 28 -11 9 -14 10 -9 2 4 -7 2 -13
-4 -13 -6 0 -15 11 -20 25 -10 27 -24 32 -36 13z"/>
<path d="M1447 1103 c-9 -15 12 -53 28 -53 12 0 15 6 10 20 -4 13 -2 20 7 20
10 0 9 3 -2 10 -18 12 -37 13 -43 3z"/>
<path d="M1820 1085 c4 -20 -12 -54 -28 -60 -13 -5 -14 -4 -5 6 10 10 9 15 -5
25 -9 8 -21 13 -27 14 -5 0 -3 -5 5 -11 12 -9 11 -10 -7 -6 -13 3 -23 1 -23
-4 0 -5 9 -9 20 -9 14 0 20 -7 20 -21 l0 -20 28 20 c27 19 31 19 51 4 21 -14
23 -14 19 3 -2 11 -10 19 -18 19 -8 0 -15 8 -15 17 0 9 -4 20 -8 25 -5 4 -8 4
-7 -2z"/>
<path d="M1210 1011 c0 -9 -8 -12 -24 -9 -17 3 -23 1 -19 -8 2 -7 12 -10 20
-7 12 5 14 1 9 -18 l-7 -24 14 23 c13 23 13 23 37 4 22 -17 23 -23 12 -46 -7
-15 -8 -26 -2 -26 6 0 10 7 10 15 0 8 5 15 10 15 6 0 8 -12 4 -27 l-6 -28 14
25 c14 24 5 60 -14 60 -5 0 -8 9 -8 21 0 15 -5 19 -15 15 -8 -3 -19 2 -24 12
-7 12 -10 13 -11 3z"/>
<path d="M1495 1005 c-16 -8 -24 -14 -17 -15 6 0 12 -7 12 -15 0 -8 4 -15 10
-15 5 0 7 7 4 15 -4 10 -2 13 8 10 9 -4 14 2 15 15 1 11 1 20 0 19 -1 0 -15
-7 -32 -14z"/>
<path d="M1537 980 c-5 -20 -2 -21 52 -11 6 1 -32 30 -40 31 -4 0 -9 -9 -12
-20z"/>
<path d="M1318 974 c6 -3 12 -14 12 -24 0 -10 5 -22 10 -25 6 -4 7 -11 4 -17
-5 -7 -1 -9 9 -5 9 3 18 0 21 -8 3 -9 12 -12 21 -9 9 4 13 9 11 12 -3 3 2 11
12 19 16 12 16 13 0 7 -12 -4 -18 -1 -18 10 0 9 -6 16 -14 16 -8 0 -21 6 -28
13 -7 6 -22 13 -33 14 -11 1 -14 0 -7 -3z m75 -48 c3 -7 1 -19 -4 -27 -7 -11
-9 -11 -9 2 0 9 -7 19 -15 23 -8 3 -15 10 -15 15 0 13 38 2 43 -13z"/>
<path d="M1820 966 c0 -7 -7 -19 -15 -26 -9 -7 -14 -19 -11 -26 3 -7 1 -15 -5
-18 -5 -2 -4 -3 3 -2 7 2 18 -4 24 -12 6 -8 16 -12 23 -8 8 5 4 13 -11 26 -30
24 -16 37 23 23 23 -9 29 -9 26 0 -2 7 -13 13 -25 15 -24 4 -30 27 -9 35 7 3
5 6 -5 6 -10 1 -18 -5 -18 -13z"/>
<path d="M1650 934 c0 -8 -5 -12 -11 -8 -7 4 -7 -1 1 -16 8 -15 8 -20 1 -16
-6 4 -11 2 -11 -4 0 -6 -4 -9 -9 -6 -13 8 -42 -4 -36 -14 7 -12 68 7 81 25 13
17 7 55 -7 55 -5 0 -9 -7 -9 -16z"/>
<path d="M1430 905 c-7 -9 -8 -15 -2 -15 6 0 12 6 15 13 4 10 7 10 18 0 11
-11 11 -13 -1 -13 -13 0 -13 -2 0 -10 9 -6 17 -5 23 3 6 8 7 5 4 -8 -3 -18 1
-20 35 -18 22 0 42 4 46 9 4 4 -1 5 -10 1 -9 -3 -19 0 -22 9 -3 8 -11 13 -18
12 -7 -2 -12 2 -11 9 2 6 -5 11 -15 11 -9 0 -24 2 -33 6 -9 4 -21 0 -29 -9z"/>
<path d="M1295 900 c-4 -6 -3 -10 2 -9 21 4 23 -2 7 -18 -10 -10 -22 -18 -28
-18 -6 0 -12 -8 -14 -18 -3 -16 -1 -17 17 -5 12 7 21 16 21 20 0 5 5 8 10 8 7
0 7 -7 0 -22 -10 -22 -10 -22 4 -4 14 18 16 18 42 -3 22 -17 30 -19 42 -9 8 7
25 12 36 11 20 -3 20 -2 -1 7 -13 5 -23 17 -24 27 -1 13 -3 12 -7 -5 -4 -13
-10 -23 -14 -23 -5 1 -13 1 -19 1 -5 0 -7 5 -4 10 4 6 1 9 -7 8 -7 -2 -12 2
-11 9 2 8 -4 10 -14 6 -10 -4 -14 -2 -10 4 4 6 0 16 -7 22 -10 9 -16 9 -21 1z"/>
<path d="M1730 900 c0 -5 -6 -7 -13 -4 -8 3 -20 -3 -28 -13 -13 -16 -12 -17 3
-5 11 9 18 10 23 2 4 -6 12 -9 18 -7 13 4 19 37 6 37 -5 0 -9 -4 -9 -10z"/>
<path d="M1742 864 c-12 -8 -22 -10 -22 -5 0 6 -4 11 -10 11 -5 0 -7 -6 -4
-14 6 -15 54 -28 54 -15 0 5 -5 9 -12 9 -6 0 -3 7 8 15 26 19 14 19 -14 -1z"/>
<path d="M1465 843 c4 -15 1 -23 -12 -26 -14 -4 -14 -5 4 -6 12 0 27 -9 32
-18 8 -13 10 -14 11 -4 0 8 3 11 7 8 3 -4 13 -1 21 5 11 10 17 7 32 -12 10
-13 15 -31 12 -39 -7 -22 3 -11 18 19 7 14 9 22 5 18 -9 -9 -35 9 -35 24 0 6
7 5 15 -2 9 -7 15 -8 15 -2 0 6 8 9 18 7 17 -2 42 12 42 25 0 4 -13 7 -30 8
-16 0 -30 -4 -30 -10 0 -5 -7 -8 -15 -4 -8 3 -15 2 -15 -2 0 -4 -9 -8 -20 -8
-11 0 -20 4 -20 8 0 4 -7 5 -15 2 -8 -4 -12 -10 -9 -15 3 -5 3 -9 0 -9 -3 0
-12 12 -21 28 -12 20 -14 22 -10 5z"/>
<path d="M591 1905 c-15 -33 -24 -75 -16 -75 11 0 36 63 33 83 -3 19 -4 18
-17 -8z"/>
<path d="M2451 1273 c-60 -174 -139 -302 -260 -424 -123 -122 -240 -195 -386
-239 -22 -7 -50 -16 -62 -21 -40 -15 -137 -24 -238 -23 -161 3 -165 3 -165 14
0 6 -4 8 -10 5 -25 -15 -190 40 -319 107 -51 27 -95 47 -97 45 -9 -9 191 -126
229 -133 4 -1 9 -3 12 -4 3 -1 8 -3 13 -4 4 -1 13 -5 19 -9 12 -8 25 -11 82
-23 14 -3 28 -7 31 -9 40 -25 369 -25 409 -1 5 3 22 8 38 11 103 15 263 91
366 173 62 50 156 146 189 192 29 41 88 132 88 135 0 1 9 23 20 49 12 25 21
48 21 51 0 2 7 22 16 42 20 49 42 133 34 133 -3 0 -17 -30 -30 -67z"/>
</g>
</svg>
